<mxfile host="app.diagrams.net" modified="2023-07-20T19:39:22.561Z" agent="Mozilla/5.0 (Macintosh; Intel Mac OS X 10_15_7) AppleWebKit/537.36 (KHTML, like Gecko) Chrome/115.0.0.0 Safari/537.36" etag="uCHgx5eGgPAOv7XhWG-D" version="21.6.3" type="github">
  <diagram name="Page-1" id="SxGY8tivmnxscS87e81n">
    <mxGraphModel dx="1059" dy="645" grid="1" gridSize="10" guides="1" tooltips="1" connect="1" arrows="1" fold="1" page="1" pageScale="1" pageWidth="850" pageHeight="1100" math="0" shadow="0">
      <root>
        <mxCell id="0" />
        <mxCell id="1" parent="0" />
        <mxCell id="JMDYmYqk6wp9ns69JjxB-3" value="" style="edgeStyle=orthogonalEdgeStyle;rounded=0;orthogonalLoop=1;jettySize=auto;html=1;" edge="1" parent="1" source="JMDYmYqk6wp9ns69JjxB-1" target="JMDYmYqk6wp9ns69JjxB-2">
          <mxGeometry relative="1" as="geometry" />
        </mxCell>
        <mxCell id="JMDYmYqk6wp9ns69JjxB-1" value="enter year" style="rounded=0;whiteSpace=wrap;html=1;" vertex="1" parent="1">
          <mxGeometry x="500" y="80" width="70" height="30" as="geometry" />
        </mxCell>
        <mxCell id="JMDYmYqk6wp9ns69JjxB-5" value="True" style="edgeStyle=orthogonalEdgeStyle;rounded=0;orthogonalLoop=1;jettySize=auto;html=1;" edge="1" parent="1" source="JMDYmYqk6wp9ns69JjxB-2">
          <mxGeometry x="-0.5076" relative="1" as="geometry">
            <mxPoint x="410" y="310" as="targetPoint" />
            <mxPoint as="offset" />
          </mxGeometry>
        </mxCell>
        <mxCell id="JMDYmYqk6wp9ns69JjxB-7" value="Flase" style="edgeStyle=orthogonalEdgeStyle;rounded=0;orthogonalLoop=1;jettySize=auto;html=1;entryX=0.5;entryY=0;entryDx=0;entryDy=0;" edge="1" parent="1" source="JMDYmYqk6wp9ns69JjxB-2" target="JMDYmYqk6wp9ns69JjxB-13">
          <mxGeometry x="0.0244" relative="1" as="geometry">
            <mxPoint x="690" y="250" as="targetPoint" />
            <Array as="points">
              <mxPoint x="680" y="250" />
            </Array>
            <mxPoint as="offset" />
          </mxGeometry>
        </mxCell>
        <mxCell id="JMDYmYqk6wp9ns69JjxB-2" value="year % 4 == 0" style="rhombus;whiteSpace=wrap;html=1;rounded=0;" vertex="1" parent="1">
          <mxGeometry x="482.5" y="200" width="105" height="100" as="geometry" />
        </mxCell>
        <mxCell id="JMDYmYqk6wp9ns69JjxB-12" value="False" style="edgeStyle=orthogonalEdgeStyle;rounded=0;orthogonalLoop=1;jettySize=auto;html=1;entryX=0.5;entryY=0;entryDx=0;entryDy=0;" edge="1" parent="1" source="JMDYmYqk6wp9ns69JjxB-10" target="JMDYmYqk6wp9ns69JjxB-27">
          <mxGeometry x="-0.25" relative="1" as="geometry">
            <mxPoint x="280" y="440" as="targetPoint" />
            <Array as="points">
              <mxPoint x="280" y="350" />
            </Array>
            <mxPoint as="offset" />
          </mxGeometry>
        </mxCell>
        <mxCell id="JMDYmYqk6wp9ns69JjxB-22" value="" style="edgeStyle=orthogonalEdgeStyle;rounded=0;orthogonalLoop=1;jettySize=auto;html=1;entryX=0.5;entryY=0;entryDx=0;entryDy=0;" edge="1" parent="1" source="JMDYmYqk6wp9ns69JjxB-10" target="JMDYmYqk6wp9ns69JjxB-15">
          <mxGeometry relative="1" as="geometry">
            <mxPoint x="542.5" y="430" as="targetPoint" />
          </mxGeometry>
        </mxCell>
        <mxCell id="JMDYmYqk6wp9ns69JjxB-23" value="True" style="edgeLabel;html=1;align=center;verticalAlign=middle;resizable=0;points=[];" vertex="1" connectable="0" parent="JMDYmYqk6wp9ns69JjxB-22">
          <mxGeometry x="-0.19" y="1" relative="1" as="geometry">
            <mxPoint as="offset" />
          </mxGeometry>
        </mxCell>
        <mxCell id="JMDYmYqk6wp9ns69JjxB-10" value="year % 100 == 0" style="rhombus;whiteSpace=wrap;html=1;" vertex="1" parent="1">
          <mxGeometry x="370" y="310" width="80" height="80" as="geometry" />
        </mxCell>
        <mxCell id="JMDYmYqk6wp9ns69JjxB-13" value="Not Leap" style="whiteSpace=wrap;html=1;" vertex="1" parent="1">
          <mxGeometry x="620" y="320" width="120" height="60" as="geometry" />
        </mxCell>
        <mxCell id="JMDYmYqk6wp9ns69JjxB-17" value="True" style="edgeStyle=orthogonalEdgeStyle;rounded=0;orthogonalLoop=1;jettySize=auto;html=1;entryX=0.5;entryY=0;entryDx=0;entryDy=0;" edge="1" parent="1" source="JMDYmYqk6wp9ns69JjxB-15" target="JMDYmYqk6wp9ns69JjxB-19">
          <mxGeometry x="-0.3684" relative="1" as="geometry">
            <mxPoint x="680" y="620" as="targetPoint" />
            <mxPoint as="offset" />
          </mxGeometry>
        </mxCell>
        <mxCell id="JMDYmYqk6wp9ns69JjxB-25" value="" style="edgeStyle=orthogonalEdgeStyle;rounded=0;orthogonalLoop=1;jettySize=auto;html=1;" edge="1" parent="1" source="JMDYmYqk6wp9ns69JjxB-15" target="JMDYmYqk6wp9ns69JjxB-24">
          <mxGeometry relative="1" as="geometry" />
        </mxCell>
        <mxCell id="JMDYmYqk6wp9ns69JjxB-26" value="Flase" style="edgeLabel;html=1;align=center;verticalAlign=middle;resizable=0;points=[];" vertex="1" connectable="0" parent="JMDYmYqk6wp9ns69JjxB-25">
          <mxGeometry x="-0.48" relative="1" as="geometry">
            <mxPoint as="offset" />
          </mxGeometry>
        </mxCell>
        <mxCell id="JMDYmYqk6wp9ns69JjxB-15" value="year % 400 == 0" style="rhombus;whiteSpace=wrap;html=1;" vertex="1" parent="1">
          <mxGeometry x="510" y="430" width="80" height="80" as="geometry" />
        </mxCell>
        <mxCell id="JMDYmYqk6wp9ns69JjxB-19" value="Leap" style="rounded=0;whiteSpace=wrap;html=1;" vertex="1" parent="1">
          <mxGeometry x="635" y="570" width="120" height="60" as="geometry" />
        </mxCell>
        <mxCell id="JMDYmYqk6wp9ns69JjxB-24" value="Not Leap" style="whiteSpace=wrap;html=1;" vertex="1" parent="1">
          <mxGeometry x="350" y="570" width="120" height="60" as="geometry" />
        </mxCell>
        <mxCell id="JMDYmYqk6wp9ns69JjxB-27" value="Leap" style="whiteSpace=wrap;html=1;" vertex="1" parent="1">
          <mxGeometry x="220" y="440" width="120" height="60" as="geometry" />
        </mxCell>
      </root>
    </mxGraphModel>
  </diagram>
</mxfile>
